<?xml version="1.0" encoding="UTF-8"?>
<svg id="Layer_3" data-name="Layer 3" xmlns="http://www.w3.org/2000/svg" viewBox="0 0 1324.71 612">
  <defs>
    <style>
      .cls-1 {
        fill: #4bc1be;
        stroke: #231f20;
        stroke-miterlimit: 10;
        stroke-width: 2px;
      }
    </style>
  </defs>
  <polygon class="cls-1" points="281.05 368.42 281.05 271.42 299.19 271.42 299.19 298.44 332.96 298.49 332.96 315.92 299.28 315.92 299.28 368.42 281.05 368.42"/>
  <path class="cls-1" d="M352.87,317.47v50.95h52.09v-50.95h-52.09ZM389.12,352.37h-20.67v-20.22h20.67v20.22Z"/>
  <polygon class="cls-1" points="495.96 368.42 495.96 270.51 514.61 270.51 514.61 298.17 548.96 298.17 548.96 315.43 514.57 315.43 514.57 368.42 495.96 368.42"/>
  <path class="cls-1" d="M620.9,351.69v-34.22h-51.2v50.41h69.34v-16.19h-18.13ZM605.12,352.52h-20.67v-20.52h20.67v20.52Z"/>
  <polygon class="cls-1" points="659.42 367.88 659.42 316.82 676.78 316.82 702.9 337.44 729.09 316.82 746.74 316.82 746.74 367.88 729.16 367.88 729.16 342.35 703.08 362.59 676.68 343.16 676.78 367.88 659.42 367.88"/>
  <polygon class="cls-1" points="767.42 367.88 767.42 316.82 784.87 316.82 811.12 337.44 837.44 316.82 855.18 316.82 855.18 367.88 837.51 367.88 837.51 342.35 811.3 362.59 784.77 343.16 784.87 367.88 767.42 367.88"/>
  <path class="cls-1" d="M926.74,351.69v-34.22h-51.46v50.41h69.69v-16.19h-18.22ZM910.83,352.49h-20.11v-20.13h20.11v20.13Z"/>
  <polygon class="cls-1" points="965.49 351.24 965.49 334.51 982.08 334.51 982.08 317.47 999.71 317.47 999.71 334.35 1016.96 334.35 1016.96 351.24 999.77 351.24 999.77 368.37 982.08 368.37 982.08 351.24 965.49 351.24"/>
  <rect class="cls-1" x="1037.34" y="317.47" width="15.61" height="50.41"/>
  <rect class="cls-1" x="1037.49" y="280.39" width="15.47" height="16.13"/>
  <polygon class="cls-1" points="1073.2 368.37 1073.2 317.47 1115.66 317.47 1115.66 333.96 1089.42 334.17 1089.42 352.44 1115.66 352.44 1115.66 368.37 1073.2 368.37"/>
  <path class="cls-1" d="M424.29,297.88v51.5l36.7-.11v20.84s-36.7,0-36.7,0v15.72h54.09v-87.95h-54.09ZM460.77,332.49v9.06h-27.8v-35.67h27.8v26.61Z"/>
  <path class="cls-1" d="M260.5,226.17l-51.45.16v141.67h22.32v-70.17h29.17l-.04-71.66ZM253.84,289.11h-20.29v-53.69h20.29v53.69Z"/>
</svg>